PathFileType	4	(X/Y/Z)	Kaydara	
DataRate	CameraRate	NumFrames	NumMarkers	Units	OrigDataRate	OrigDataStartFrame	OrigNumFrames	
60.00	60.00	4	74	mm	60.00	977	200	
Frame#	Time	N_lasi			N_rasi			N_rpsi			N_lpsi			N_fneck			N_bneck			N_fhead			N_rhead			N_lhead			N_rshld			N_relbtop			N_relbext			N_relblow			N_rwrext			N_rwrtop			N_rwrlow			N_lshld			N_lelbext			N_lelbtop			N_lwrext			N_lwrtop			N_lwrlow			N_rtopleg			N_ltopleg			N_rkneefr			N_rkneebk			N_rkneeis			N_lkneefr			N_lknssbk			N_lkneeis			N_rankfr			N_rankis			N_rankbk			N_lankfr			N_lankbk			N_lankis			Z_lasi			Z_rasi			Z_rpsi			Z_lpsi			Z_fneck			Z_bneck			Z_fhead			Z_rhead			Z_lhead			Z_rshld			Z_relbtop			Z_relbext			Z_relblow			Z_rwrext			Z_rwrtop			Z_rwrlow			Z_lshld			Z_lelbext			Z_lelblow			Z_lelbtop			Z_lwrext			Z_lwrtop			Z_lwrlow			Z_rtopleg			Z_ltopleg			Z_rkneefr			Z_rkneebk			Z_rkneeis			Z_lkneefr			Z_lknssbk			Z_lkneeis			Z_rankfr			Z_rankis			Z_lankfr			Z_lankbk			Z_lankis			N_lelblow			Z_rankbk			
		X1	Y1	Z1	X2	Y2	Z2	X3	Y3	Z3	X4	Y4	Z4	X5	Y5	Z5	X6	Y6	Z6	X7	Y7	Z7	X8	Y8	Z8	X9	Y9	Z9	X10	Y10	Z10	X11	Y11	Z11	X12	Y12	Z12	X13	Y13	Z13	X14	Y14	Z14	X15	Y15	Z15	X16	Y16	Z16	X17	Y17	Z17	X18	Y18	Z18	X19	Y19	Z19	X20	Y20	Z20	X21	Y21	Z21	X22	Y22	Z22	X23	Y23	Z23	X24	Y24	Z24	X25	Y25	Z25	X26	Y26	Z26	X27	Y27	Z27	X28	Y28	Z28	X29	Y29	Z29	X30	Y30	Z30	X31	Y31	Z31	X32	Y32	Z32	X33	Y33	Z33	X34	Y34	Z34	X35	Y35	Z35	X36	Y36	Z36	X37	Y37	Z37	X38	Y38	Z38	X39	Y39	Z39	X40	Y40	Z40	X41	Y41	Z41	X42	Y42	Z42	X43	Y43	Z43	X44	Y44	Z44	X45	Y45	Z45	X46	Y46	Z46	X47	Y47	Z47	X48	Y48	Z48	X49	Y49	Z49	X50	Y50	Z50	X51	Y51	Z51	X52	Y52	Z52	X53	Y53	Z53	X54	Y54	Z54	X55	Y55	Z55	X56	Y56	Z56	X57	Y57	Z57	X58	Y58	Z58	X59	Y59	Z59	X60	Y60	Z60	X61	Y61	Z61	X62	Y62	Z62	X63	Y63	Z63	X64	Y64	Z64	X65	Y65	Z65	X66	Y66	Z66	X67	Y67	Z67	X68	Y68	Z68	X69	Y69	Z69	X70	Y70	Z70	X71	Y71	Z71	X72	Y72	Z72	X73	Y73	Z73	X74	Y74	Z74	

26	16.267	506.04992	1044.51035	-452.82738	675.51186	1032.08321	-600.93994	824.99069	1098.63052	-406.14601	623.10150	1096.56433	-275.38536	598.62968	1495.91049	-573.06805	685.89317	1578.01743	-485.16819	495.68008	1702.91153	-620.42858	673.55560	1696.54236	-618.83869	597.01241	1708.94028	-482.37251	839.40750	1455.19165	-623.33527	956.66122	1171.39633	-561.36097	896.59241	1163.16162	-504.61102	893.24150	1161.46179	-596.96003	946.74118	913.21663	-595.26054	922.63847	918.46085	-639.84554	878.08334	916.24245	-627.25014	474.85558	1503.81424	-371.93115	447.25815	1219.16748	-276.99217	397.18315	1256.38214	-244.34677	331.91868	1019.06639	-165.73057	291.82377	1019.93256	-199.50903	315.93729	997.77573	-236.98641	847.73483	907.87552	-532.22244	488.36319	913.36769	-329.34055	755.61165	470.42328	-580.96436	820.62195	511.41758	-486.46557	707.42393	480.20256	-474.52820	471.79039	485.03525	-538.76179	475.65498	528.47641	-437.01553	574.31644	524.88907	-513.43136	794.73480	170.32640	-523.95741	759.52171	174.40310	-458.78914	839.10744	172.05046	-474.39297	592.82398	234.61418	-344.40907	673.72292	281.87840	-333.24745	643.94501	245.75047	-392.51072	-968.31490	978.35648	864.76662	-1002.44644	982.73643	1103.56651	-1193.81584	1034.43314	1046.03294	-1159.67842	1028.89351	854.88495	-933.08525	1420.53894	971.71867	-1023.35411	1502.38510	976.05621	-797.14180	1543.10654	983.99139	-956.17508	1607.18002	1071.23413	-965.61974	1610.96771	942.24998	-1083.12256	1366.32706	1194.72908	-1168.08525	1075.21431	1225.31990	-1139.31694	1063.18588	1162.30759	-1087.63290	1090.44525	1246.93932	-1096.86142	825.23125	1261.97235	-1054.34830	829.82536	1279.51248	-1032.99278	841.08521	1239.86847	-978.72177	1394.98535	772.42317	-1035.63736	1072.82005	773.25134	-972.35771	1097.72240	710.53284	-1050.64117	1071.56380	700.88913	-950.02037	867.91237	698.84438	-910.71587	880.91942	708.74992	-917.30713	879.29573	754.23882	-1098.37906	874.14131	1148.73573	-1041.43425	897.38678	798.93036	-956.78543	415.02525	1122.39624	-1036.66168	438.38669	1160.58975	-1018.00522	426.36971	1046.40633	-977.00455	401.79092	834.69208	-1014.13910	455.35042	771.65558	-1060.29053	452.02950	891.07521	-990.60532	154.17361	1121.04378	-1048.22166	149.89709	1063.80692	-1216.98868	249.32035	823.17192	-1226.05820	266.46740	747.74673	-1265.58441	298.45011	791.16394	428.47023	1211.26350	-302.59773	-1067.26051	144.14848	1132.30270 
27	16.283	500.89146	1047.03529	-461.61556	667.15530	1033.24249	-613.66650	820.30289	1100.66223	-426.85825	622.15267	1099.35173	-286.57169	589.31389	1497.82196	-584.16359	678.80981	1580.24109	-498.70110	484.55235	1704.56741	-628.66028	662.19696	1698.81073	-631.50826	589.01360	1710.57770	-493.17421	828.97583	1458.03604	-640.82863	949.71657	1174.83894	-582.78355	892.34550	1165.96436	-522.55516	885.34500	1164.91570	-616.59569	936.19812	916.59966	-617.97569	911.30821	922.72385	-662.37083	867.10693	920.95428	-648.67447	471.51791	1506.66656	-379.00723	446.02131	1224.73236	-277.28807	397.69207	1262.27600	-244.30487	327.40570	1026.29219	-162.81622	288.63791	1028.28514	-195.13508	309.41246	1006.39877	-234.55250	840.75462	909.60617	-547.57401	485.39574	916.88255	-338.80703	752.92068	470.83565	-583.77197	818.79158	513.28644	-490.48405	705.60791	481.76136	-477.07108	460.19825	492.74841	-556.33713	465.15724	530.55363	-452.83829	563.31764	528.30276	-529.22867	793.19901	171.24363	-524.68956	758.84132	175.57718	-459.33918	837.72438	173.49356	-476.15463	573.79791	225.47508	-381.62025	655.75584	269.05380	-367.97695	624.77688	238.21068	-428.55186	-959.64676	981.69937	872.23572	-986.97121	983.04321	1110.38116	-1179.45770	1036.41510	1058.52303	-1150.25101	1030.26939	865.94711	-920.59692	1423.36884	979.82086	-1010.84839	1504.74243	985.38788	-784.57489	1545.80429	989.67422	-941.95366	1609.46213	1079.69788	-954.69498	1613.64471	951.23108	-1064.77982	1367.99866	1205.41229	-1149.90585	1076.91475	1238.81386	-1123.37364	1064.81018	1174.62364	-1068.66119	1091.98029	1257.87521	-1078.07785	826.52901	1271.80153	-1034.95346	831.21552	1288.24722	-1014.80347	842.58919	1248.02185	-972.17445	1397.32224	780.00580	-1030.90698	1075.97763	780.16998	-970.86182	1101.12541	714.20029	-1049.72008	1075.79018	708.30070	-951.92490	871.35094	698.66928	-911.77734	883.55659	706.94412	-916.15761	881.45470	752.52396	-1084.32594	875.71548	1157.68372	-1030.50049	901.01814	806.85936	-951.17249	415.09663	1124.79713	-1030.04250	439.15749	1164.24179	-1012.57378	427.88357	1049.28749	-949.77577	408.40256	838.56346	-990.03128	462.78530	778.48526	-1031.02982	457.63905	899.85786	-988.66478	154.47069	1121.91078	-1046.31851	151.47750	1064.57321	-1190.36728	257.21657	835.17731	-1204.39812	277.08361	761.16180	-1240.78049	307.28348	807.86331	425.48763	1216.49925	-303.23141	-1064.88663	145.28577	1133.50548 
28	16.300	495.38048	1048.49854	-470.48653	658.41141	1033.39745	-625.86029	815.57045	1102.42348	-445.88608	620.63354	1101.76842	-297.18576	579.74499	1499.19586	-594.86412	671.33759	1582.03583	-511.67419	472.91073	1705.76828	-636.47236	650.55901	1700.46783	-643.67599	580.61005	1711.56570	-503.59207	818.02025	1460.58685	-658.09357	942.30392	1177.80762	-604.07509	887.69424	1168.11684	-539.87846	876.91360	1167.87308	-635.94643	925.62653	919.60350	-641.06827	899.51279	926.50940	-684.75075	855.70023	925.13397	-669.86145	467.85629	1508.60443	-386.10435	444.22539	1229.01413	-279.30584	398.69205	1266.71425	-244.98465	323.25977	1032.21451	-161.29919	286.18122	1035.21439	-192.10646	303.52448	1013.81119	-233.16797	834.40697	910.82581	-561.17928	481.69716	919.80652	-348.34805	749.84665	471.11809	-586.79157	816.54327	514.97181	-494.64077	703.50922	483.19553	-479.56718	449.42890	499.41879	-572.63550	455.90218	532.15717	-468.33351	553.00911	530.14534	-543.91895	791.28044	172.24514	-526.37383	757.16606	176.90706	-460.71602	836.26015	174.97421	-478.13618	553.28655	215.89499	-419.76608	636.66180	255.13466	-403.12546	604.42749	230.20840	-465.36469	-949.04587	985.11787	877.58888	-972.51587	983.87627	1116.57944	-1166.49696	1039.43222	1068.25035	-1139.87892	1033.44154	875.31372	-908.60283	1425.91080	987.07481	-998.18130	1507.52350	993.99925	-771.95816	1548.44788	994.38766	-927.94754	1611.82037	1087.25807	-940.84946	1616.44318	957.86026	-1046.89842	1370.05264	1215.07019	-1131.03378	1079.07654	1251.80618	-1107.36710	1066.66885	1186.61942	-1049.10866	1093.75793	1267.66556	-1058.70346	827.88040	1280.81680	-1015.74188	832.88834	1296.77231	-996.46500	844.36653	1255.86502	-966.13953	1400.13596	786.99356	-1027.49046	1079.27147	786.09871	-969.59618	1104.92653	718.08167	-1048.99330	1080.47157	714.88808	-953.76968	875.39497	698.29552	-913.10593	887.06497	705.00427	-915.41916	883.86726	749.34593	-1071.54907	877.51297	1165.09789	-1019.58931	904.97063	813.56552	-946.30165	415.25654	1127.88002	-1025.11009	440.20893	1167.64145	-1007.49405	429.49966	1052.38708	-923.95615	415.51506	841.84837	-967.41066	470.06672	784.36897	-1002.82387	463.16402	907.74971	-986.75491	155.26469	1123.07739	-1044.02687	153.28349	1065.41977	-1163.34557	262.73706	847.41776	-1182.14249	284.56537	775.06683	-1215.89371	312.87378	824.95499	420.89577	1220.62485	-306.58718	-1063.24257	147.13692	1134.10828 
29	16.317	489.72740	1049.10873	-479.21535	649.69536	1033.22762	-637.83661	810.63766	1103.34938	-462.31293	618.73562	1103.23967	-310.98433	569.73202	1500.03128	-605.24693	663.18321	1583.13187	-524.34978	461.18546	1706.44196	-643.89107	638.62617	1701.58798	-655.23346	572.04212	1712.10159	-513.45825	806.84311	1462.38373	-674.17625	934.08188	1180.22415	-625.00282	881.77673	1170.11673	-559.91768	867.90619	1170.31395	-655.07637	914.57375	922.22427	-663.95470	887.13173	929.84909	-706.68770	843.76457	928.76244	-690.63690	463.59615	1509.60632	-393.27419	443.51101	1231.84120	-281.72953	400.38254	1269.43794	-246.99169	327.55863	1035.69557	-165.07301	284.17797	1040.52689	-190.55532	298.54000	1019.54643	-232.89862	826.33629	911.59187	-576.80439	477.49397	921.98677	-357.97562	746.53473	471.19766	-590.06046	814.16023	516.57082	-499.27223	701.39870	484.66228	-482.41379	439.38328	504.98474	-587.55939	447.13322	532.55600	-482.52857	543.55206	530.25520	-557.94460	789.32175	173.04728	-527.76852	755.15221	178.38249	-462.62089	834.74556	176.32460	-480.03483	531.07822	206.59204	-458.52985	616.00632	240.89426	-438.78632	582.74952	222.18374	-503.01746	-936.92947	988.81554	881.91055	-958.83156	986.02821	1123.26355	-1154.25812	1042.60666	1076.24756	-1129.63219	1037.89856	883.41171	-896.42204	1428.54095	993.29361	-985.64766	1510.43564	1002.06726	-759.33128	1551.16684	998.23059	-913.83308	1614.61044	1094.30595	-930.60234	1619.22760	965.94131	-1029.42558	1372.74445	1223.91716	-1111.63719	1081.65077	1264.04770	-1090.31189	1068.64563	1197.93816	-1029.08607	1096.25526	1276.36391	-1039.71573	830.09735	1290.20538	-996.36841	835.35759	1304.98077	-978.07632	846.71432	1263.52707	-960.04425	1403.47473	793.70071	-1024.34227	1083.35518	791.53496	-968.63739	1109.60518	721.98227	-1048.28690	1085.88783	721.22757	-955.70900	880.27466	697.81708	-914.60670	891.50269	702.37709	-915.61630	887.83516	748.29712	-1059.41231	879.46571	1171.13495	-1008.60451	909.47289	819.38400	-942.03461	415.89272	1130.56572	-1020.47012	441.26148	1170.12260	-1002.80098	431.13781	1054.83925	-899.36012	422.71782	844.84184	-946.28052	477.01176	789.94499	-976.34315	468.41110	914.80598	-984.78348	156.43529	1124.10896	-1041.81847	155.38197	1066.41998	-1135.40924	265.70604	860.19745	-1158.18008	289.59841	787.90901	-1189.93286	314.79416	841.23146	417.77657	1223.55507	-309.42743	-1061.27800	148.94566	1135.04021 
